<?xml version="1.0" encoding="iso-8859-1"?>
<!-- Generator: Adobe Illustrator 19.0.0, SVG Export Plug-In . SVG Version: 6.00 Build 0)  -->
<svg version="1.1" id="Capa_1" xmlns="http://www.w3.org/2000/svg" xmlns:xlink="http://www.w3.org/1999/xlink" x="0px" y="0px"
	 viewBox="0 0 512 512" style="enable-background:new 0 0 512 512;" xml:space="preserve">
<path style="fill:#303C42;" d="M266.667,447.996c-1.604,0-3.208-0.365-4.708-1.094c-3.646-1.792-5.958-5.5-5.958-9.573v-96H10.667
	C4.771,341.329,0,336.559,0,330.663V181.329c0-5.896,4.771-10.667,10.667-10.667H256v-96c0-4.073,2.313-7.781,5.958-9.573
	c3.646-1.771,8.021-1.365,11.229,1.135l234.667,181.333c2.625,2.021,4.146,5.135,4.146,8.438c0,3.302-1.521,6.417-4.146,8.438
	L273.188,445.767C271.292,447.246,268.979,447.996,266.667,447.996z"/>
<path style="fill:#1E88E5;" d="M21.333,319.996h245.333c5.896,0,10.667,4.771,10.667,10.667v84.948l206.563-159.615L277.333,96.382
	v84.948c0,5.896-4.771,10.667-10.667,10.667H21.333V319.996z"/>
<linearGradient id="SVGID_1_" gradientUnits="userSpaceOnUse" x1="-45.9679" y1="639.6726" x2="-24.8285" y2="629.8154" gradientTransform="matrix(21.3333 0 0 -21.3333 996.3334 13791.667)">
	<stop  offset="0" style="stop-color:#FFFFFF;stop-opacity:0.2"/>
	<stop  offset="1" style="stop-color:#FFFFFF;stop-opacity:0"/>
</linearGradient>
<path style="fill:url(#SVGID_1_);" d="M266.667,447.996c-1.604,0-3.208-0.365-4.708-1.094c-3.646-1.792-5.958-5.5-5.958-9.573v-96
	H10.667C4.771,341.329,0,336.559,0,330.663V181.329c0-5.896,4.771-10.667,10.667-10.667H256v-96c0-4.073,2.313-7.781,5.958-9.573
	c3.646-1.771,8.021-1.365,11.229,1.135l234.667,181.333c2.625,2.021,4.146,5.135,4.146,8.438c0,3.302-1.521,6.417-4.146,8.438
	L273.188,445.767C271.292,447.246,268.979,447.996,266.667,447.996z"/>
<g>
</g>
<g>
</g>
<g>
</g>
<g>
</g>
<g>
</g>
<g>
</g>
<g>
</g>
<g>
</g>
<g>
</g>
<g>
</g>
<g>
</g>
<g>
</g>
<g>
</g>
<g>
</g>
<g>
</g>
</svg>
